<svg width="18" height="18" viewBox="0 0 18 18" fill="none" xmlns="http://www.w3.org/2000/svg">
<path fill-rule="evenodd" clip-rule="evenodd" d="M12.3492 4.60347C12.0716 4.60347 11.8055 4.71373 11.6092 4.90999C11.4129 5.10625 11.3027 5.37243 11.3027 5.64998C11.3027 5.92753 11.4129 6.19372 11.6092 6.38998C11.8055 6.58624 12.0716 6.69649 12.3492 6.69649C12.6268 6.69649 12.8929 6.58624 13.0892 6.38998C13.2855 6.19372 13.3957 5.92753 13.3957 5.64998C13.3957 5.37243 13.2855 5.10625 13.0892 4.90999C12.8929 4.71373 12.6268 4.60347 12.3492 4.60347ZM10.0469 5.64998C10.0469 5.03937 10.2894 4.45376 10.7212 4.02199C11.153 3.59022 11.7386 3.34766 12.3492 3.34766C12.9598 3.34766 13.5454 3.59022 13.9772 4.02199C14.409 4.45376 14.6515 5.03937 14.6515 5.64998C14.6515 6.2606 14.409 6.8462 13.9772 7.27797C13.5454 7.70974 12.9598 7.95231 12.3492 7.95231C11.7386 7.95231 11.153 7.70974 10.7212 7.27797C10.2894 6.8462 10.0469 6.2606 10.0469 5.64998Z" fill="#787878"/>
<path fill-rule="evenodd" clip-rule="evenodd" d="M8.95228 0H9.04772C10.9808 0 12.4953 4.99016e-08 13.6775 0.15907C14.8864 0.321488 15.8408 0.661395 16.5901 1.40986C17.3394 2.15916 17.6785 3.11358 17.8409 4.32335C18 5.50465 18 7.01916 18 8.95228V9.04772C18 10.9808 18 12.4953 17.8409 13.6775C17.6785 14.8864 17.3386 15.8408 16.5901 16.5901C15.8408 17.3394 14.8864 17.6785 13.6767 17.8409C12.4953 18 10.9808 18 9.04772 18H8.95228C7.01916 18 5.50465 18 4.32251 17.8409C3.11358 17.6785 2.15916 17.3386 1.40986 16.5901C0.660558 15.8408 0.321488 14.8864 0.15907 13.6767C4.99016e-08 12.4953 0 10.9808 0 9.04772V8.95228C0 7.01916 4.99016e-08 5.50465 0.15907 4.32251C0.321488 3.11358 0.661395 2.15916 1.40986 1.40986C2.15916 0.660558 3.11358 0.321488 4.32335 0.15907C5.50465 4.99016e-08 7.01916 0 8.95228 0ZM2.29814 15.7019C1.82093 15.2247 1.54716 14.58 1.40316 13.5092C1.27507 12.554 1.25833 11.335 1.25581 9.70326L2.50744 8.60819C2.75517 8.39127 3.0761 8.27663 3.4052 8.28751C3.7343 8.2984 4.04695 8.43398 4.27981 8.66679L7.87144 12.2584C8.25462 12.6418 8.76076 12.8776 9.30075 12.9245C9.84074 12.9714 10.38 12.8262 10.8234 12.5146L11.0729 12.3388C11.4218 12.0935 11.8435 11.9739 12.2692 11.9994C12.6949 12.025 13.0993 12.1942 13.4163 12.4794L16.1146 14.909C16.1442 14.9353 16.1752 14.9584 16.2075 14.9785C16.083 15.2476 15.9118 15.4925 15.7019 15.7019C15.2247 16.1791 14.58 16.4528 13.5092 16.5968C12.4208 16.7425 10.9909 16.7442 9 16.7442C7.00912 16.7442 5.57916 16.7425 4.49079 16.5968C3.42 16.4528 2.77535 16.1782 2.29814 15.7019ZM4.49079 1.40316C3.42 1.54716 2.77451 1.82177 2.2973 2.29814C1.82093 2.77535 1.54716 3.42 1.40316 4.49079C1.28177 5.39498 1.26084 6.53358 1.25665 8.0347L1.68112 7.66298C2.16868 7.23644 2.80014 7.01117 3.44758 7.03277C4.09502 7.05438 4.71005 7.32126 5.16809 7.77935L8.75972 11.371C8.93397 11.5449 9.16397 11.6519 9.40928 11.673C9.65459 11.6941 9.8995 11.6281 10.1009 11.4865L10.3504 11.3107C10.9319 10.902 11.6349 10.7028 12.3443 10.7455C13.0538 10.7883 13.7278 11.0705 14.256 11.546L16.5784 13.6365L16.5968 13.5092C16.7425 12.4208 16.7442 10.9909 16.7442 9C16.7442 7.00912 16.7425 5.57916 16.5968 4.49079C16.4528 3.42 16.1782 2.77451 15.7019 2.2973C15.2247 1.82093 14.58 1.54716 13.5092 1.40316C12.4208 1.25749 10.9909 1.25581 9 1.25581C7.00912 1.25581 5.57916 1.25749 4.49079 1.40316Z" fill="#787878"/>
</svg>
