<svg width="21" height="24" viewBox="0 0 21 24" fill="none" xmlns="http://www.w3.org/2000/svg">
<path d="M13.7734 12.9945H18.0769V11.923H13.7734V12.9945ZM13.7734 10.0274H18.0769V8.95598H13.7734V10.0274ZM4.9231 16.044H11.9059V15.8667C11.9059 15.2417 11.5967 14.7579 10.9783 14.4152C10.3599 14.0725 9.50535 13.9012 8.41461 13.9012C7.32387 13.9012 6.46922 14.0725 5.85067 14.4152C5.23229 14.7579 4.9231 15.2417 4.9231 15.8667V16.044ZM8.41461 12.1703C8.8597 12.1703 9.23487 12.0154 9.5401 11.7058C9.84533 11.396 9.99794 11.0151 9.99794 10.5631C9.99794 10.1112 9.84533 9.73036 9.5401 9.42071C9.23487 9.11089 8.8597 8.95598 8.41461 8.95598C7.96934 8.95598 7.59409 9.11089 7.28886 9.42071C6.98381 9.73036 6.83128 10.1112 6.83128 10.5631C6.83128 11.0151 6.98381 11.396 7.28886 11.7058C7.59409 12.0154 7.96934 12.1703 8.41461 12.1703ZM3.70525 20C3.21934 20 2.81366 19.8348 2.48819 19.5045C2.16273 19.1741 2 18.7623 2 18.2691V6.73089C2 6.23768 2.16273 5.82589 2.48819 5.49554C2.81366 5.16518 3.21934 5 3.70525 5H19.2948C19.7807 5 20.1863 5.16518 20.5118 5.49554C20.8373 5.82589 21 6.23768 21 6.73089V18.2691C21 18.7623 20.8373 19.1741 20.5118 19.5045C20.1863 19.8348 19.7807 20 19.2948 20H3.70525ZM3.70525 18.9286H19.2948C19.4573 18.9286 19.6062 18.8599 19.7415 18.7226C19.8768 18.5853 19.9444 18.4341 19.9444 18.2691V6.73089C19.9444 6.56589 19.8768 6.41473 19.7415 6.27741C19.6062 6.14009 19.4573 6.07143 19.2948 6.07143H3.70525C3.54269 6.07143 3.39377 6.14009 3.25849 6.27741C3.1232 6.41473 3.05556 6.56589 3.05556 6.73089V18.2691C3.05556 18.4341 3.1232 18.5853 3.25849 18.7226C3.39377 18.8599 3.54269 18.9286 3.70525 18.9286Z" fill="#8F92A1"/>
</svg>
