<svg width="21" height="27" viewBox="0 0 21 27" fill="none" xmlns="http://www.w3.org/2000/svg">
<g clip-path="url(#clip0_40004264_13198)">
<path d="M3.70525 20C3.21934 20 2.81366 19.8362 2.48819 19.5086C2.16273 19.181 2 18.7726 2 18.2835V7.90397C2 7.41486 2.16273 7.00651 2.48819 6.67891C2.81366 6.3513 3.21934 6.1875 3.70525 6.1875H8.33333V4.7162C8.33333 4.22728 8.49607 3.81901 8.82153 3.49141C9.14699 3.1638 9.55268 3 10.0386 3H12.9614C13.4473 3 13.853 3.1638 14.1785 3.49141C14.5039 3.81901 14.6667 4.22728 14.6667 4.7162V6.1875H19.2948C19.7807 6.1875 20.1863 6.3513 20.5118 6.67891C20.8373 7.00651 21 7.41486 21 7.90397V18.2835C21 18.7726 20.8373 19.181 20.5118 19.5086C20.1863 19.8362 19.7807 20 19.2948 20H3.70525ZM9.38889 6.1875H13.6111V4.7162C13.6111 4.55275 13.5435 4.40294 13.4082 4.26677C13.2729 4.13059 13.124 4.0625 12.9614 4.0625H10.0386C9.87603 4.0625 9.72711 4.13059 9.59182 4.26677C9.45653 4.40294 9.38889 4.55275 9.38889 4.7162V6.1875ZM19.9444 14.1562H13.6111V15.75H9.38889V14.1562H3.05556V18.2835C3.05556 18.4472 3.1232 18.5971 3.25849 18.7332C3.39377 18.8694 3.54269 18.9375 3.70525 18.9375H19.2948C19.4573 18.9375 19.6062 18.8694 19.7415 18.7332C19.8768 18.5971 19.9444 18.4472 19.9444 18.2835V14.1562ZM10.4444 14.6875H12.5556V12.5625H10.4444V14.6875ZM3.05556 13.0938H9.38889V11.5H13.6111V13.0938H19.9444V7.90397C19.9444 7.74034 19.8768 7.59044 19.7415 7.45427C19.6062 7.31809 19.4573 7.25 19.2948 7.25H3.70525C3.54269 7.25 3.39377 7.31809 3.25849 7.45427C3.1232 7.59044 3.05556 7.74034 3.05556 7.90397V13.0938Z" fill="#8F92A1" stroke="#8F92A1" stroke-width="0.2"/>
</g>
<defs>
<clipPath id="clip0_40004264_13198">
<rect width="21" height="27" fill="white"/>
</clipPath>
</defs>
</svg>
