<svg width="18" height="18" viewBox="0 0 18 18" fill="none" xmlns="http://www.w3.org/2000/svg">
<path fill-rule="evenodd" clip-rule="evenodd" d="M17.222 2.85664C17.3086 2.98679 17.3472 3.14253 17.3313 3.29758C17.3153 3.45263 17.2459 3.59748 17.1346 3.70768L8.75682 12.0032C8.67112 12.0881 8.56418 12.1488 8.44698 12.1792L4.95754 13.0817C4.8422 13.1115 4.72099 13.1109 4.60595 13.08C4.49091 13.049 4.38604 12.9888 4.30175 12.9054C4.21746 12.8219 4.15668 12.718 4.12545 12.6041C4.09421 12.4902 4.0936 12.3702 4.12369 12.2559L5.035 8.80125C5.06225 8.69779 5.11237 8.60162 5.18173 8.51968L13.5905 0.197949C13.7186 0.071196 13.8923 0 14.0734 0C14.2546 0 14.4283 0.071196 14.5564 0.197949L17.1346 2.75015C17.1664 2.7834 17.1957 2.819 17.222 2.85664ZM15.6847 3.22846L14.0734 1.63379L6.31085 9.32108L5.74127 11.4807L7.92206 10.9167L15.6847 3.22846Z" fill="#8F92A1"/>
<path d="M15.5675 13.4553C15.8166 11.347 15.8961 9.22253 15.8054 7.10183C15.8032 7.05185 15.8116 7.00197 15.8299 6.95536C15.8483 6.90875 15.8762 6.86643 15.912 6.83109L16.8087 5.94305C16.8332 5.91865 16.8643 5.90177 16.8983 5.89445C16.9322 5.88712 16.9676 5.88967 17.0001 5.90177C17.0327 5.91388 17.061 5.93503 17.0817 5.96268C17.1023 5.99034 17.1145 6.02332 17.1167 6.05766C17.2851 8.5767 17.221 11.1057 16.9254 13.6132C16.7103 15.438 15.2303 16.8684 13.3958 17.0715C10.2111 17.4205 6.99717 17.4205 3.81242 17.0715C1.97885 16.8684 0.497961 15.438 0.282891 13.6132C-0.0942969 10.4143 -0.0942969 7.18271 0.282891 3.98377C0.497961 2.15897 1.97794 0.728544 3.81242 0.525487C6.22965 0.261105 8.66492 0.196806 11.0929 0.33326C11.1277 0.335731 11.161 0.348011 11.1889 0.368648C11.2168 0.389284 11.2382 0.417411 11.2505 0.449698C11.2627 0.481985 11.2654 0.517079 11.2582 0.550824C11.2509 0.584569 11.2341 0.615552 11.2096 0.640102L10.3046 1.53536C10.2693 1.57042 10.227 1.59788 10.1804 1.61605C10.1338 1.63421 10.084 1.64269 10.034 1.64095C8.0079 1.57222 5.97946 1.64914 3.96461 1.87108C3.37585 1.93561 2.82624 2.19482 2.40458 2.60682C1.98291 3.01883 1.71382 3.55957 1.64075 4.14171C1.27519 7.23567 1.27519 10.3613 1.64075 13.4553C1.71382 14.0374 1.98291 14.5781 2.40458 14.9901C2.82624 15.4021 3.37585 15.6614 3.96461 15.7259C7.02208 16.0643 10.1862 16.0643 13.2446 15.7259C13.8333 15.6614 14.3829 15.4021 14.8046 14.9901C15.2263 14.5781 15.4944 14.0374 15.5675 13.4553Z" fill="#8F92A1"/>
</svg>
