<svg width="15" height="17" viewBox="0 0 15 17" fill="none" xmlns="http://www.w3.org/2000/svg">
<path d="M13.4982 6.935C13.5323 6.50835 13.2171 6.1346 12.7942 6.1002C12.3712 6.06581 12.0008 6.38379 11.9667 6.81044L13.4982 6.935ZM12.0733 14.2912L11.3098 14.2057L11.3098 14.206L12.0733 14.2912ZM10.2619 15.9761L10.2757 16.751H10.2759L10.2619 15.9761ZM4.24755 15.9723L4.26374 15.1974L4.26327 15.1974L4.24755 15.9723ZM2.48911 14.2967L3.25268 14.2116L3.25265 14.2113L2.48911 14.2967ZM2.5965 6.81061C2.5625 6.38396 2.1921 6.06589 1.76919 6.10019C1.34629 6.13449 1.03101 6.50817 1.06501 6.93483L2.5965 6.81061ZM12.7325 6.87272C11.9667 6.81044 11.9667 6.81045 11.9667 6.81049C11.9667 6.81052 11.9667 6.81058 11.9667 6.81066C11.9667 6.81081 11.9667 6.81104 11.9667 6.81135C11.9666 6.81197 11.9665 6.8129 11.9664 6.81415C11.9662 6.81664 11.9659 6.82037 11.9655 6.82532C11.9648 6.83521 11.9636 6.84994 11.962 6.86927C11.9589 6.90792 11.9543 6.96495 11.9484 7.03834C11.9365 7.18511 11.9193 7.39731 11.8979 7.65885C11.8551 8.18197 11.7954 8.90228 11.7283 9.6911C11.5936 11.2722 11.4296 13.1174 11.3098 14.2057L12.8369 14.3768C12.9591 13.2663 13.1246 11.4023 13.259 9.82379C13.3264 9.03283 13.3862 8.31078 13.4291 7.78648C13.4505 7.52431 13.4678 7.31154 13.4797 7.16427C13.4857 7.09063 13.4903 7.03336 13.4935 6.99448C13.495 6.97504 13.4962 6.9602 13.4969 6.9502C13.4973 6.9452 13.4977 6.94142 13.4979 6.93887C13.498 6.9376 13.4981 6.93664 13.4981 6.93599C13.4982 6.93567 13.4982 6.93543 13.4982 6.93526C13.4982 6.93518 13.4982 6.93511 13.4982 6.93507C13.4982 6.93503 13.4982 6.935 12.7325 6.87272ZM11.3098 14.206C11.2676 14.5906 11.1391 14.8188 10.9965 14.9524C10.8557 15.0844 10.6265 15.1943 10.2479 15.2012L10.2759 16.751C10.9505 16.7386 11.5694 16.5312 12.0422 16.088C12.5132 15.6466 12.7639 15.042 12.8369 14.3765L11.3098 14.206ZM10.2481 15.2012C8.25237 15.2375 6.2559 15.2398 4.26374 15.1974L4.23136 16.7471C6.24619 16.79 8.26288 16.7876 10.2757 16.751L10.2481 15.2012ZM4.26327 15.1974C3.91417 15.1902 3.69759 15.084 3.56071 14.9524C3.42024 14.8173 3.29387 14.5878 3.25268 14.2116L1.72554 14.3817C1.79728 15.037 2.04349 15.6349 2.50069 16.0745C2.96148 16.5175 3.56766 16.7334 4.23183 16.7471L4.26327 15.1974ZM3.25265 14.2113C3.13211 13.1133 2.96827 11.2666 2.83402 9.6867C2.76703 8.89841 2.70764 8.17924 2.66499 7.65714C2.64367 7.3961 2.62654 7.18437 2.61474 7.03794C2.60884 6.96473 2.60428 6.90785 2.60119 6.86929C2.59964 6.85001 2.59847 6.83532 2.59768 6.82546C2.59729 6.82052 2.59699 6.8168 2.59679 6.81432C2.59669 6.81307 2.59662 6.81214 2.59657 6.81152C2.59654 6.81121 2.59652 6.81098 2.59651 6.81083C2.59651 6.81076 2.5965 6.8107 2.5965 6.81066C2.5965 6.81063 2.5965 6.81061 1.83075 6.87272C1.06501 6.93483 1.06501 6.93485 1.06502 6.93489C1.06502 6.93494 1.06503 6.935 1.06503 6.93508C1.06504 6.93525 1.06506 6.93549 1.06509 6.93581C1.06514 6.93646 1.06522 6.93742 1.06532 6.93869C1.06552 6.94122 1.06582 6.945 1.06622 6.94999C1.06702 6.95996 1.0682 6.97476 1.06976 6.99416C1.07286 7.03294 1.07745 7.09007 1.08337 7.16353C1.09521 7.31046 1.11238 7.52277 1.13376 7.78444C1.1765 8.30774 1.23604 9.02867 1.30321 9.8191C1.43725 11.3966 1.6026 13.2619 1.72557 14.382L3.25265 14.2113Z" fill="#E40000"/>
<path d="M13.7956 4.75708C14.2198 4.75708 14.5638 4.41009 14.5638 3.98205C14.5638 3.55402 14.2198 3.20703 13.7956 3.20703V4.75708ZM0.768213 3.20703C0.34394 3.20703 0 3.55402 0 3.98205C0 4.41009 0.34394 4.75708 0.768213 4.75708V3.20703ZM13.7956 3.20703H0.768213V4.75708H13.7956V3.20703Z" fill="#E40000"/>
<path d="M11.2792 4.2541C11.7035 4.2541 12.0474 3.9071 12.0474 3.47908C12.0474 3.05105 11.7035 2.70405 11.2792 2.70405V4.2541ZM9.85186 1.51052L10.6052 1.35864C10.602 1.34242 10.5982 1.32631 10.594 1.31033L9.85186 1.51052ZM4.69946 1.51052L3.95732 1.31033C3.95308 1.32631 3.94935 1.34242 3.94614 1.35864L4.69946 1.51052ZM3.27212 2.70405C2.84785 2.70405 2.50391 3.05105 2.50391 3.47908C2.50391 3.9071 2.84785 4.2541 3.27212 4.2541V2.70405ZM11.2792 2.70405C11.0427 2.70405 10.8383 2.53503 10.7918 2.30076L9.28522 2.60482C9.47533 3.56254 10.3096 4.2541 11.2792 4.2541V2.70405ZM10.7918 2.30076L10.6052 1.35864L9.09854 1.66239L9.28522 2.60482L10.7918 2.30076ZM10.594 1.31033C10.3886 0.53528 9.69296 0 8.90158 0V1.55004C8.9998 1.55004 9.08466 1.61618 9.10972 1.71071L10.594 1.31033ZM8.90158 0H5.64974V1.55004H8.90158V0ZM5.64974 0C4.85837 0 4.16273 0.535279 3.95732 1.31033L5.4416 1.71071C5.46666 1.61618 5.55152 1.55004 5.64974 1.55004V0ZM3.94614 1.35864L3.75946 2.30107L5.26604 2.60513L5.45278 1.66239L3.94614 1.35864ZM3.75946 2.30107C3.71296 2.53534 3.50859 2.70405 3.27212 2.70405V4.2541C4.24174 4.2541 5.07593 3.56285 5.26604 2.60513L3.75946 2.30107Z" fill="#E40000"/>
</svg>
