<svg width="24" height="31" viewBox="0 0 24 31" fill="none" xmlns="http://www.w3.org/2000/svg">
<path d="M9.66896 6.98666C11.3829 6.98666 12.7788 5.64453 12.7788 3.9929C12.7788 2.3404 11.3829 1 9.66896 1C7.95502 1 6.55908 2.34213 6.55908 3.99376C6.5582 5.64627 7.95502 6.98666 9.66896 6.98666ZM9.66896 1.41178C11.1466 1.41178 12.3502 2.57041 12.3502 3.9929C12.3502 5.41537 11.1466 6.57401 9.66896 6.57401C8.19132 6.57401 6.98773 5.41539 6.98773 3.9929C6.98773 2.56958 8.19129 1.41178 9.66896 1.41178ZM16.0196 8.27722C17.5869 8.27722 18.8625 7.04925 18.8625 5.54044C18.8625 4.03163 17.5869 2.80366 16.0196 2.80366C14.4523 2.80366 13.1767 4.03163 13.1767 5.54044C13.1776 7.04919 14.4523 8.27722 16.0196 8.27722ZM16.0196 3.21739C17.3514 3.21739 18.4328 4.25846 18.4328 5.54044C18.4328 6.82242 17.3513 7.86349 16.0196 7.86349C14.6878 7.86349 13.6065 6.82242 13.6065 5.54044C13.6047 4.26088 14.6888 3.21739 16.0196 3.21739ZM22.7605 13.5468L20.8462 10.3561C20.2347 9.33614 19.1841 8.7543 17.963 8.7543H14.8821C14.464 8.7543 14.059 8.83887 13.6856 8.99449C13.0759 8.10058 12.0323 7.55255 10.9219 7.55255L7.52816 7.5517C6.1902 7.5517 5.03855 8.19274 4.37083 9.30739L2.26067 12.8188C1.8223 13.5487 1.94617 14.4705 2.56198 15.0615L5.80972 18.188V20.3809C5.80972 20.7226 6.09786 21 6.45279 21H18.8986C19.2535 21 19.5417 20.7226 19.5417 20.3809V18.435L22.4829 15.6036C23.0504 15.0623 23.1628 14.2132 22.7605 13.5468ZM6.23928 20.3835V18.5821C6.87794 19.065 7.76435 19.1014 8.44345 18.6988C8.44345 18.7098 8.44081 18.7225 8.44081 18.7335V20.589H6.45277C6.33329 20.589 6.23928 20.496 6.23928 20.3835ZM9.34915 17.2722C9.84816 16.5854 10.6555 16.177 11.5243 16.177H14.0009C14.9365 16.177 15.8045 16.6573 16.2832 17.4345C16.2788 17.8049 16.3982 18.1771 16.6434 18.4866C16.6521 18.5686 16.6592 18.6515 16.6592 18.7335V20.589H15.1411V19.394C15.1411 19.279 15.0445 19.1885 14.9276 19.1885C14.8108 19.1885 14.7142 19.2815 14.7142 19.394V20.589H10.8189V19.394C10.8189 19.279 10.7223 19.1885 10.6055 19.1885C10.4886 19.1885 10.392 19.2815 10.392 19.394V20.589H8.87393V18.7335C8.87393 18.5931 8.88711 18.4502 8.91259 18.3115C9.16998 18.0088 9.31841 17.6451 9.34915 17.2722ZM19.1146 20.3835C19.1146 20.4985 19.018 20.589 18.9012 20.589H17.0862V18.8874C17.3717 19.0667 17.7046 19.1648 18.0534 19.1648C18.44 19.1648 18.8089 19.0456 19.1129 18.8274L19.112 20.3835L19.1146 20.3835ZM22.1798 15.3135L19.0022 18.3724C18.7483 18.6168 18.411 18.7513 18.0534 18.7513C17.6932 18.7513 17.3559 18.6168 17.1046 18.3724C16.581 17.8684 16.581 17.0472 17.1046 16.5432L19.4388 14.2961C19.5065 14.231 19.5223 14.127 19.4722 14.0475L18.5278 12.4736C18.4689 12.3738 18.3363 12.3417 18.2353 12.3975C18.1316 12.4542 18.0982 12.5819 18.1562 12.6791L19.0171 14.1168L16.7998 16.2514C16.6135 16.4307 16.4782 16.6413 16.393 16.8662C15.8106 16.177 14.9338 15.7634 14.0008 15.7634H11.5242C10.6765 15.7634 9.88054 16.1034 9.30248 16.6835C9.22166 16.3613 9.05474 16.056 8.79383 15.8048L6.33841 13.4402L7.29685 11.8427C7.35571 11.7429 7.32145 11.6177 7.21779 11.5611C7.11412 11.5044 6.9841 11.5374 6.92524 11.6372L5.88597 13.3717C5.83677 13.452 5.85258 13.5561 5.91935 13.6203L8.4924 16.0973C9.07749 16.6606 9.07749 17.5781 8.4924 18.1414C7.90731 18.7046 6.95415 18.7046 6.36906 18.1414L2.86561 14.7722C2.38682 14.3113 2.29019 13.5941 2.63192 13.0275L4.74121 9.51198C5.33244 8.52674 6.34711 7.9618 7.52791 7.9618H10.9216C11.8748 7.9618 12.77 8.42524 13.306 9.18468C12.7666 9.50521 12.33 9.98809 12.0848 10.575C10.9805 10.8626 10.1644 11.8351 10.1644 12.9886C10.1644 14.3696 11.332 15.4911 12.764 15.4911C14.1986 15.4911 15.3636 14.3672 15.3636 12.9886C15.3636 11.6075 14.1961 10.486 12.764 10.486C12.7078 10.486 12.6516 10.4903 12.5953 10.4945C13.0407 9.68938 13.9219 9.16506 14.883 9.16506H17.9639C19.0277 9.16506 19.9449 9.67418 20.4764 10.5613L22.3907 13.7521C22.6946 14.2587 22.6094 14.9014 22.1798 15.3132L22.1798 15.3135ZM12.764 10.8964C13.9623 10.8964 14.9365 11.8335 14.9365 12.9879C14.9365 14.1414 13.9632 15.0793 12.764 15.0793C11.5657 15.0793 10.5914 14.1423 10.5914 12.9879C10.5914 11.836 11.5648 10.8964 12.764 10.8964Z" fill="#8F92A1" stroke="#8F92A1" stroke-width="0.5"/>
</svg>
