<svg width="20" height="19" viewBox="0 0 20 19" fill="none" xmlns="http://www.w3.org/2000/svg">
<path d="M3.6155 17C3.15517 17 2.77083 16.8348 2.4625 16.5045C2.15417 16.1741 2 15.7623 2 15.2691V3.73089C2 3.23768 2.15417 2.82589 2.4625 2.49554C2.77083 2.16518 3.15517 2 3.6155 2H18.3845C18.8448 2 19.2292 2.16518 19.5375 2.49554C19.8458 2.82589 20 3.23768 20 3.73089V15.2691C20 15.7623 19.8458 16.1741 19.5375 16.5045C19.2292 16.8348 18.8448 17 18.3845 17H3.6155ZM11 9.62375L3 4.01911V15.2691C3 15.4614 3.05767 15.6195 3.173 15.7432C3.2885 15.8668 3.436 15.9286 3.6155 15.9286H18.3845C18.564 15.9286 18.7115 15.8668 18.827 15.7432C18.9423 15.6195 19 15.4614 19 15.2691V4.01911L11 9.62375ZM11 8.42857L18.6923 3.07143H3.30775L11 8.42857ZM3 4.01911V3.07143V15.2691C3 15.4614 3.05767 15.6195 3.173 15.7432C3.2885 15.8668 3.436 15.9286 3.6155 15.9286H3V4.01911Z" fill="#8F92A1"/>
</svg>
